<svg xmlns="http://www.w3.org/2000/svg" width="173.108" height="77.455" viewBox="0 0 173.108 77.455">
  <g id="Group_44" data-name="Group 44" transform="translate(-992.138 -2192.035)">
    <path id="Icon_metro-mobile" data-name="Icon metro-mobile" d="M54.836,1.928H11.268A4.855,4.855,0,0,0,6.427,6.769V74.542a4.855,4.855,0,0,0,4.841,4.841H54.836a4.855,4.855,0,0,0,4.841-4.841V6.769A4.855,4.855,0,0,0,54.836,1.928ZM33.052,75.887a3.765,3.765,0,1,1,3.766-3.765A3.766,3.766,0,0,1,33.052,75.887ZM54.836,64.86H11.268V11.61H54.836Z" transform="translate(1105.568 2190.107)" fill="#8235c4"/>
    <path id="Icon_metro-mobile-2" data-name="Icon metro-mobile" d="M54.836,1.928H11.268A4.855,4.855,0,0,0,6.427,6.769V74.542a4.855,4.855,0,0,0,4.841,4.841H54.836a4.855,4.855,0,0,0,4.841-4.841V6.769A4.855,4.855,0,0,0,54.836,1.928ZM33.052,75.887a3.765,3.765,0,1,1,3.766-3.765A3.766,3.766,0,0,1,33.052,75.887ZM54.836,64.86H11.268V11.61H54.836Z" transform="translate(985.711 2190.107)" fill="#8235c4"/>
    <path id="Icon_awesome-arrow-left" data-name="Icon awesome-arrow-left" d="M33.2,13.606l.6.6a.643.643,0,0,0,.912,0l5.228-5.226a.643.643,0,0,0,0-.912L34.711,2.837a.643.643,0,0,0-.912,0l-.6.6a.646.646,0,0,0,.011.923l3.241,3.088L.642,7.471A.644.644,0,0,0,0,8.116v.861a.644.644,0,0,0,.645.645L36.454,9.6l-3.241,3.088A.642.642,0,0,0,33.2,13.606Z" transform="translate(1059.229 2214.268)"/>
    <path id="Icon_awesome-arrow-left-2" data-name="Icon awesome-arrow-left" d="M6.923,13.606l-.6.6a.643.643,0,0,1-.912,0L.186,8.977a.643.643,0,0,1,0-.912L5.415,2.837a.643.643,0,0,1,.912,0l.6.6a.646.646,0,0,1-.011.923L3.672,7.444l35.812.027a.644.644,0,0,1,.646.645v.861a.644.644,0,0,1-.646.645L3.672,9.6l3.241,3.088A.642.642,0,0,1,6.923,13.606Z" transform="translate(1059.227 2228.402)"/>
  </g>
</svg>
