<svg xmlns="http://www.w3.org/2000/svg" width="30.561" height="68.16" viewBox="0 0 30.561 68.16">
  <path id="Icon_simple-mongodb" data-name="Icon simple-mongodb" d="M39.923,27.031C36.336,11.241,27.876,6.052,26.967,4.067A25.519,25.519,0,0,1,24.885,0c-.006.054-.011.088-.014.139V.176h0c-.006.043-.009.071-.011.111V.329h-.006c0,.028-.006.051-.006.074V.477h-.009a.54.54,0,0,1-.009.071v.06h-.006a.2.2,0,0,1-.006.06V.724h-.006c0,.028,0,.062-.006.091V.821c-.009.048-.017.1-.026.142V.985h-.006a.15.15,0,0,0-.009.034v.048h-.009V1.13h-.014v.051h-.014v.06h-.011V1.3h-.011v.048h-.017v.04h-.011v.051h-.011v.04h-.014v.037h-.009v.043h-.011a.017.017,0,0,0,0,.011v.028h-.009a.036.036,0,0,0,0,.017v.017h-.006a.125.125,0,0,0-.006.028c-.009.02-.02.04-.028.06v.006a.086.086,0,0,0-.014.02v.023h-.011v.023h-.014v.023H24.53v.028h-.017v.04H24.5v.011h-.011v.023h-.011v.031h-.011v.023h-.017V2h-.011v.023h-.014v.023h-.009V2.07H24.4v.023h-.011V2.11H24.38v.023h-.017v.026h-.011v.017h-.014V2.2h-.011v.031h-.014v.011H24.3v.023h-.017v.011h-.011V2.3h-.011v.011h-.011v.023h-.014v.017h-.009l-.006.011v.011h-.006c0,.006-.006.006-.006.011v0h0a.046.046,0,0,1-.011.02V2.42h0a.533.533,0,0,0-.034.051v0a.128.128,0,0,0-.026.028v.006h0s-.009.006-.009.009v.009h-.006l-.009.009v0h0s-.006.006-.009.011v.011H24.09l-.006.006V2.57h-.006c0,.006-.006.006-.006.009v.009h-.011s0,.006-.006.009v.017h-.009v.011h-.011v.017h-.011v.023h-.014V2.641H24v.011h-.011V2.67h-.014v.023h-.014V2.7h-.011v.017h-.011v.011h-.011v.023h-.017v.011h-.011v.017H23.88v.011h-.011v.014h-.014v.028h-.006v.011h-.017v.014H23.82v.006h-.011V2.88h-.014v.028h-.011V2.92h-.014v.011h-.011v.017h-.014v.011h-.014v.011h-.011v.011h-.011V3.01H23.7v.014h-.017v.011h-.011v.011h-.014v.017h-.011v.011h-.014V3.1h-.011v.011H23.6v.017h-.006v.011h-.011v.011h-.014v.011h-.011v.017h-.014v.011h-.009a.009.009,0,0,0,0,.006V3.2h-.006l-.011.011a.053.053,0,0,1-.011.009v.017h-.011v.014h-.011V3.26h-.011v.011H23.46l-.009.009v.009h-.006l-.006.006V3.3h-.006a.285.285,0,0,1-.04.045l-.034.028a1.04,1.04,0,0,0-.111.091.6.6,0,0,0-.062.048v0h0l-.139.111v0c-.068.057-.133.111-.21.176v0h-.006c-.162.133-.332.284-.528.452v0h0c-.48.42-1.051.96-1.69,1.613l-.043.043-.011.011c-3.862,4-9.949,12.323-10.59,25.779a29.44,29.44,0,0,0,.017,3.249v.026a30.943,30.943,0,0,0,4.056,13.507v0a35.573,35.573,0,0,0,2.63,3.99v0a36.343,36.343,0,0,0,7.14,7.174c1.252,2.905,1.136,7.892,1.136,7.892l1.829.611A34.062,34.062,0,0,1,26.922,61a4.425,4.425,0,0,1,.991-1.88,23.8,23.8,0,0,0,2.263-1.832c.051-.054.08-.1.125-.153,4.32-4.027,12.388-13.944,9.622-30.1Z" transform="translate(-9.927)" fill="#2ce600"/>
</svg>
