<svg xmlns="http://www.w3.org/2000/svg" width="72.526" height="63.463" viewBox="0 0 72.526 63.463">
  <path id="Icon_awesome-react" data-name="Icon awesome-react" d="M59.239,22.817q-1.147-.382-2.295-.722c.127-.524.241-1.048.354-1.572,1.742-8.442.595-15.228-3.272-17.466C50.3.918,44.224,3.142,38.076,8.5c-.609.524-1.2,1.077-1.771,1.629-.382-.368-.779-.737-1.176-1.091C28.684,3.311,22.225.9,18.358,3.156,14.647,5.309,13.542,11.7,15.1,19.686c.156.793.326,1.572.524,2.366-.907.255-1.8.538-2.635.836C5.425,25.508,0,29.645,0,33.922c0,4.42,5.779,8.853,13.641,11.545.637.212,1.275.425,1.926.609-.212.85-.4,1.686-.567,2.55-1.487,7.862-.326,14.094,3.385,16.233,3.825,2.21,10.256-.057,16.517-5.539.5-.439.992-.892,1.487-1.374.623.609,1.275,1.19,1.926,1.756,6.063,5.213,12.055,7.323,15.752,5.184,3.825-2.21,5.071-8.91,3.456-17.069q-.191-.935-.425-1.912c.453-.127.892-.269,1.332-.411C66.6,42.79,72.526,38.413,72.526,33.922c0-4.292-5.581-8.457-13.287-11.105ZM40.073,10.791C45.343,6.2,50.258,4.4,52.5,5.691c2.394,1.374,3.315,6.927,1.813,14.222-.1.482-.2.949-.326,1.417a72.515,72.515,0,0,0-9.533-1.5,71.569,71.569,0,0,0-6.034-7.522c.552-.524,1.091-1.02,1.657-1.516ZM23.684,41.274c.722,1.232,1.459,2.465,2.238,3.669a64.141,64.141,0,0,1-6.573-1.062,66.171,66.171,0,0,1,2.309-6.3c.652,1.247,1.317,2.479,2.026,3.7ZM19.392,24.233c2.04-.453,4.207-.822,6.459-1.1-.751,1.176-1.487,2.38-2.181,3.6s-1.374,2.436-2.011,3.683c-.892-2.111-1.643-4.179-2.266-6.176Zm3.881,9.76c.935-1.955,1.955-3.867,3.031-5.751s2.238-3.711,3.456-5.51c2.125-.156,4.292-.241,6.5-.241s4.391.085,6.5.241q1.806,2.677,3.442,5.482t3.074,5.723q-1.424,2.932-3.06,5.779C45.144,41.6,44,43.427,42.793,45.24c-2.111.156-4.306.227-6.53.227s-4.377-.071-6.459-.2q-1.849-2.7-3.485-5.524c-1.091-1.884-2.1-3.8-3.046-5.751Zm25.582,7.253c.722-1.247,1.4-2.507,2.068-3.782a65.757,65.757,0,0,1,2.394,6.275,62.218,62.218,0,0,1-6.658,1.133C47.425,43.682,48.147,42.464,48.856,41.246ZM50.9,30.409c-.666-1.247-1.346-2.493-2.054-3.711s-1.417-2.394-2.167-3.57a65.185,65.185,0,0,1,6.5,1.133A62.69,62.69,0,0,1,50.9,30.409Zm-14.6-15.936a62.2,62.2,0,0,1,4.193,5.071c-2.8-.127-5.624-.127-8.428,0C33.444,17.717,34.875,16.018,36.291,14.474ZM19.86,5.79c2.38-1.388,7.663.595,13.23,5.524.354.312.708.652,1.077.992a71.967,71.967,0,0,0-6.077,7.522A74.669,74.669,0,0,0,18.571,21.3c-.184-.722-.34-1.459-.5-2.2C16.743,12.25,17.621,7.079,19.86,5.79ZM16.389,43.13c-.595-.17-1.176-.354-1.756-.552a28.891,28.891,0,0,1-8.924-4.42,6.356,6.356,0,0,1-2.663-4.235c0-2.592,4.476-5.907,10.936-8.159.807-.283,1.629-.538,2.451-.779a75.322,75.322,0,0,0,3.47,9.009,77.43,77.43,0,0,0-3.513,9.137ZM32.906,57.012a25.927,25.927,0,0,1-7.989,5,6.27,6.27,0,0,1-5,.184c-2.252-1.3-3.187-6.3-1.912-13.032.156-.793.326-1.586.524-2.366a70.864,70.864,0,0,0,9.618,1.388,74.753,74.753,0,0,0,6.119,7.564C33.812,56.19,33.359,56.615,32.906,57.012Zm3.47-3.442c-1.445-1.558-2.89-3.286-4.292-5.142,1.36.057,2.762.085,4.179.085,1.459,0,2.89-.028,4.306-.1a61.087,61.087,0,0,1-4.193,5.156Zm18.514,4.25a6.3,6.3,0,0,1-2.337,4.434c-2.252,1.3-7.054-.4-12.239-4.844-.595-.51-1.19-1.062-1.8-1.629a70.073,70.073,0,0,0,5.978-7.593A69.829,69.829,0,0,0,54.153,46.7c.142.581.269,1.162.382,1.728a25.822,25.822,0,0,1,.354,9.392Zm2.578-15.228c-.4.127-.793.255-1.2.368a71.958,71.958,0,0,0-3.612-9.037,71.6,71.6,0,0,0,3.47-8.91c.737.212,1.445.439,2.125.666,6.6,2.266,11.233,5.638,11.233,8.216,0,2.776-4.944,6.36-12.012,8.7ZM36.263,40.467a6.488,6.488,0,1,0-6.488-6.488A6.487,6.487,0,0,0,36.263,40.467Z" transform="translate(0 -2.251)" fill="#0ec6ff"/>
</svg>
