<svg xmlns="http://www.w3.org/2000/svg" width="88.571" height="77.5" viewBox="0 0 88.571 77.5">
  <path id="Icon_awesome-quote-left" data-name="Icon awesome-quote-left" d="M80.268,41H66.429V29.929A11.082,11.082,0,0,1,77.5,18.857h1.384a4.142,4.142,0,0,0,4.152-4.152V6.4A4.142,4.142,0,0,0,78.884,2.25H77.5A27.671,27.671,0,0,0,49.821,29.929V71.446a8.306,8.306,0,0,0,8.3,8.3H80.268a8.306,8.306,0,0,0,8.3-8.3V49.3A8.306,8.306,0,0,0,80.268,41ZM30.446,41H16.607V29.929A11.082,11.082,0,0,1,27.679,18.857h1.384a4.142,4.142,0,0,0,4.152-4.152V6.4A4.142,4.142,0,0,0,29.062,2.25H27.679A27.671,27.671,0,0,0,0,29.929V71.446a8.306,8.306,0,0,0,8.3,8.3H30.446a8.306,8.306,0,0,0,8.3-8.3V49.3A8.306,8.306,0,0,0,30.446,41Z" transform="translate(0 -2.25)" fill="#ea5a1a"/>
</svg>
