<svg xmlns="http://www.w3.org/2000/svg" width="81.061" height="30.706" viewBox="0 0 81.061 30.706">
  <path id="Icon_awesome-arrow-right" data-name="Icon awesome-arrow-right" d="M62.948,31.3l1.561,1.561a1.681,1.681,0,0,0,2.384,0L80.561,19.2a1.681,1.681,0,0,0,0-2.384L66.893,3.143a1.681,1.681,0,0,0-2.384,0L62.948,4.7a1.689,1.689,0,0,0,.028,2.412l8.473,8.072H1.684A1.683,1.683,0,0,0,0,16.875v2.25a1.683,1.683,0,0,0,1.688,1.688H71.449l-8.473,8.072A1.677,1.677,0,0,0,62.948,31.3Z" transform="translate(0.004 -2.647)" fill="#464572"/>
</svg>
