<svg xmlns="http://www.w3.org/2000/svg" width="79.05" height="79.05" viewBox="0 0 79.05 79.05">
  <path id="Icon_awesome-wordpress-simple" data-name="Icon awesome-wordpress-simple" d="M40.088.563A39.525,39.525,0,1,0,79.613,40.088,39.569,39.569,0,0,0,40.088.563ZM4.547,40.088A35.292,35.292,0,0,1,7.623,25.632L24.58,72.074A35.567,35.567,0,0,1,4.547,40.088ZM40.088,75.628a35.4,35.4,0,0,1-10.041-1.45L40.709,43.2,51.626,73.126a4.8,4.8,0,0,0,.255.494A35.58,35.58,0,0,1,40.088,75.628Zm4.893-52.2c2.136-.112,4.064-.335,4.064-.335a1.471,1.471,0,0,0-.223-2.933s-5.753.446-9.467.446c-3.49,0-9.355-.446-9.355-.446a1.471,1.471,0,0,0-.223,2.933s1.817.223,3.729.335l5.53,15.173L31.258,61.922,18.317,23.433c2.136-.112,4.064-.335,4.064-.335a1.471,1.471,0,0,0-.223-2.933s-5.753.446-9.467.446c-.669,0-1.45-.016-2.3-.048A35.54,35.54,0,0,1,64.089,13.87a4.5,4.5,0,0,0-.462-.032,6.151,6.151,0,0,0-5.961,6.311c0,2.932,1.689,5.4,3.49,8.335a18.651,18.651,0,0,1,2.933,9.8c0,3.044-1.163,6.566-2.709,11.491L57.842,61.619,44.98,23.433ZM57.953,70.8,68.807,39.418a33.615,33.615,0,0,0,2.709-12.734,26.156,26.156,0,0,0-.239-3.65A35.543,35.543,0,0,1,57.953,70.8Z" transform="translate(-0.563 -0.563)" fill="#6b6b6b"/>
</svg>
